<svg version="1.2" xmlns="http://www.w3.org/2000/svg" viewBox="0 0 1024 1024" width="1024" height="1024">
	<title>discord-svg</title>
	<style>
		.s0 { fill: #000000 } 
		.s1 { fill: #ffffff } 
	</style>
	<path id="Layer copy" class="s0" d="m512 1024c-283.1 0-512-228.9-512-512 0-283.1 228.9-512 512-512 283.1 0 512 228.9 512 512 0 283.1-228.9 512-512 512z"/>
	<path fill-rule="evenodd" class="s1" d="m689.6 349.1q0.1 0.1 0.2 0.2 0.1 0 0.1 0.1 0.1 0.1 0.2 0.2c57.8 85.1 86.3 181 75.7 291.5q-0.1 0.1-0.1 0.3-0.1 0.2-0.1 0.3-0.1 0.2-0.3 0.3-0.1 0.1-0.2 0.2-14.5 10.8-29.8 20.2-15.4 9.5-31.5 17.6-16 8.1-32.8 14.9-16.7 6.7-33.9 12-0.3 0-0.5 0-0.3 0-0.5-0.1-0.3 0-0.5-0.2-0.2-0.1-0.3-0.3-3.7-5.1-7.1-10.3-3.5-5.2-6.8-10.5-3.2-5.4-6.3-10.8-3.1-5.4-5.9-11-0.2-0.3-0.2-0.6 0-0.4 0.1-0.7 0.1-0.3 0.4-0.6 0.2-0.2 0.5-0.3 5.2-2 10.3-4.2 5.1-2.1 10.1-4.5 5-2.4 9.9-5 4.9-2.6 9.7-5.3 0.4-0.3 0.6-0.6 0.2-0.4 0.2-0.8 0-0.4-0.1-0.8-0.2-0.3-0.5-0.6c-2.8-2-5.5-4.1-8-6.2q-0.2-0.2-0.4-0.2-0.2-0.1-0.4-0.2-0.3 0-0.5 0.1-0.2 0-0.4 0.1c-82.8 38.2-173.5 38.2-257.3 0q-0.2-0.1-0.4-0.1-0.3-0.1-0.5 0-0.2 0-0.4 0.1-0.2 0.1-0.4 0.2c-2.5 2.1-5.2 4.2-7.9 6.2q-0.3 0.3-0.5 0.7-0.2 0.3-0.1 0.7 0 0.4 0.2 0.8 0.2 0.3 0.6 0.6 4.8 2.7 9.7 5.3 4.9 2.6 9.9 4.9 5 2.4 10 4.6 5.1 2.2 10.3 4.2 0.3 0.1 0.6 0.3 0.2 0.3 0.3 0.6 0.2 0.3 0.2 0.6-0.1 0.4-0.2 0.7-2.8 5.6-5.9 11-3 5.5-6.3 10.8-3.3 5.3-6.8 10.5-3.5 5.2-7.2 10.2-0.1 0.2-0.3 0.4-0.2 0.1-0.5 0.2-0.2 0.1-0.5 0.1-0.2 0-0.5-0.1-17.2-5.3-33.9-12-16.7-6.7-32.7-14.9-16.1-8.1-31.4-17.5-15.3-9.5-29.8-20.2-0.1-0.1-0.3-0.2-0.1-0.2-0.2-0.3-0.1-0.2-0.1-0.4-0.1-0.1-0.1-0.3c-8.9-95.5 9.3-192.2 75.7-291.4q0-0.1 0.1-0.2 0.1-0.1 0.1-0.2 0.1 0 0.2-0.1 0.1-0.1 0.2-0.1 12.5-5.7 25.2-10.6 12.8-4.9 25.9-8.9 13-4.1 26.3-7.3 13.3-3.2 26.8-5.5 0.3-0.1 0.5 0 0.3 0 0.5 0.1 0.2 0.1 0.4 0.3 0.2 0.2 0.3 0.4 1.8 3.2 3.6 6.5 1.7 3.3 3.4 6.6 1.6 3.4 3.2 6.7 1.5 3.4 3 6.8 14.5-2.2 29.2-3.3 14.6-1.1 29.3-1.1 14.7 0 29.4 1.1 14.6 1.1 29.1 3.3 1.5-3.4 3-6.8 1.6-3.3 3.2-6.7 1.6-3.3 3.3-6.6 1.7-3.3 3.5-6.5 0.2-0.2 0.3-0.4 0.2-0.2 0.4-0.3 0.3-0.1 0.5-0.1 0.3-0.1 0.5 0 13.5 2.3 26.8 5.5 13.3 3.2 26.4 7.3 13 4 25.8 8.9 12.8 4.9 25.2 10.6 0.1 0 0.2 0.1zm-216.5 182.1c0.4-28.2-20.2-51.6-46-51.6-25.6 0-46 23.2-46 51.6 0 28.5 20.8 51.6 46 51.6 25.6 0 46-23.1 46-51.6zm170.1 0c0.4-28.2-20.1-51.6-46-51.6-25.6 0-46 23.2-46 51.6 0 28.5 20.8 51.6 46 51.6 25.9 0 46-23.1 46-51.6z"/>
</svg>