<svg version="1.2" xmlns="http://www.w3.org/2000/svg" viewBox="0 0 1024 1024" width="1024" height="1024">
	<title>discord-svg</title>
	<defs>
		<clipPath clipPathUnits="userSpaceOnUse" id="cp1">
			<path d="m787.97 232v502.64h-553.97v-502.64z"/>
		</clipPath>
	</defs>
	<style>
		.s0 { fill: #000000 } 
		.s1 { fill: #ffffff } 
	</style>
	<path id="Layer copy" class="s0" d="m512 1024c-283.1 0-512-228.9-512-512 0-283.1 228.9-512 512-512 283.1 0 512 228.9 512 512 0 283.1-228.9 512-512 512z"/>
	<g id="Clip-Path" clip-path="url(#cp1)">
		<g>
			<path fill-rule="evenodd" class="s1" d="m376.1 669.9l64.4-32.1c16.2 43.5 58.2 74.5 107.5 74.5 63.4 0 114.8-51.3 114.8-114.6 0-22.8-6.7-44.1-18.2-61.9l53.4-26.6c33.2 22.6 63.6 52.6 90 88.5-62.6 84.8-147 136.9-240 136.9-62.5 0-121.1-23.4-171.9-64.7zm132.4-66l68.1-34.1c7.1 7.2 11.4 17.1 11.4 27.9 0 22-17.9 39.9-40 39.9-10.6 0-20.8-4.2-28.3-11.6-6-6.1-9.9-13.8-11.2-22.1z"/>
			<path class="s1" d="m390.7 596.8l388.9-187-85.5-177.8-44.1 157.1-53.1-110.4-44.2 157.2-53-110.4-44.2 157.1-53-110.4-44.2 157.1-53.1-110.4-71.2 253.2 97.2-46.7 59.5-28.6z"/>
		</g>
	</g>
</svg>