<svg version="1.2" xmlns="http://www.w3.org/2000/svg" viewBox="0 0 1024 1024" width="1024" height="1024">
	<title>discord-svg</title>
	<style>
		.s0 { fill: #000000 } 
		.s1 { fill: #ffffff } 
	</style>
	<path id="Layer copy" class="s0" d="m512 1024c-283.1 0-512-228.9-512-512 0-283.1 228.9-512 512-512 283.1 0 512 228.9 512 512 0 283.1-228.9 512-512 512z"/>
	<path fill-rule="evenodd" class="s1" d="m767.6 512c0 141.4-114.6 256-256 256-117.2 0-215.9-78.8-246.3-186.5l98.2 40.7c6.8 33.2 36.2 58.2 71.1 58.2 40 0 72.3-32.4 72.3-72.4 0-1.2-0.1-2.3-0.1-3.4l87-62.1h2.2c53.2 0 96.5-43.2 96.5-96.5 0-53.3-43.3-96.6-96.5-96.6-53.2 0-96.5 43.3-96.5 96.5v1.3l-61 88.4c-1.3 0-2.7-0.1-4-0.1-15.1 0-29.2 4.7-40.8 12.6l-137.2-56.7c10.5-131.7 120.7-235.4 255.1-235.4 141.3 0 256 114.6 256 256zm-298.4 111c8.6-20.4-1.1-43.9-21.5-52.4l-32.5-13.4c12.6-4.7 26.8-4.9 40.1 0.6 13.4 5.6 23.9 16.1 29.4 29.5 5.5 13.5 5.5 28.2-0.1 41.6-11.5 27.7-43.4 40.8-71.1 29.3-12.8-5.4-22.4-15.1-28-26.7l31.4 13c20.4 8.5 43.9-1.2 52.3-21.5zm126.9-112.7c-35.5 0-64.3-28.8-64.3-64.3 0-35.4 28.8-64.3 64.3-64.3 35.4 0 64.3 28.8 64.3 64.3 0 35.5-28.9 64.3-64.3 64.3zm0.1-16.1c26.6 0 48.3-21.6 48.3-48.3 0-26.7-21.7-48.3-48.3-48.3-26.7 0-48.3 21.6-48.3 48.3 0 26.7 21.6 48.3 48.3 48.3z"/>
</svg>